<svg xmlns="http://www.w3.org/2000/svg" viewBox="0 0 512 512" width="512" height="512">
  <defs>
    <linearGradient id="brainGrad" x1="0%" y1="0%" x2="100%" y2="100%">
      <stop offset="0%" style="stop-color:#FF6B6B"/>
      <stop offset="50%" style="stop-color:#C44569"/>
      <stop offset="100%" style="stop-color:#6C5CE7"/>
    </linearGradient>
    <linearGradient id="noteGrad" x1="0%" y1="0%" x2="100%" y2="100%">
      <stop offset="0%" style="stop-color:#FFEAA7"/>
      <stop offset="100%" style="stop-color:#FDCB6E"/>
    </linearGradient>
  </defs>
  <circle cx="256" cy="256" r="240" fill="#1a1a2e" stroke="url(#brainGrad)" stroke-width="8"/>
  <g transform="translate(100, 80)">
    <path d="M156 60 C180 40, 220 40, 240 60 C260 40, 300 40, 320 60 C340 80, 340 120, 320 140 C340 160, 340 200, 320 220 C340 240, 340 280, 320 300 C300 320, 260 320, 240 300 C220 320, 180 320, 160 300 C140 280, 140 240, 160 220 C140 200, 140 160, 160 140 C140 120, 140 80, 156 60 Z" 
          fill="url(#brainGrad)" opacity="0.9"/>
    <path d="M240 60 L240 300" stroke="#1a1a2e" stroke-width="4" stroke-linecap="round"/>
    <path d="M200 100 Q240 120 280 100" stroke="#1a1a2e" stroke-width="3" fill="none"/>
    <path d="M180 160 Q240 180 300 160" stroke="#1a1a2e" stroke-width="3" fill="none"/>
    <path d="M180 220 Q240 240 300 220" stroke="#1a1a2e" stroke-width="3" fill="none"/>
  </g>
  <g transform="translate(320, 300)">
    <rect x="0" y="0" width="100" height="120" rx="8" fill="url(#noteGrad)" stroke="#E17055" stroke-width="3"/>
    <line x1="15" y1="30" x2="85" y2="30" stroke="#E17055" stroke-width="2"/>
    <line x1="15" y1="50" x2="85" y2="50" stroke="#E17055" stroke-width="2"/>
    <line x1="15" y1="70" x2="65" y2="70" stroke="#E17055" stroke-width="2"/>
    <line x1="15" y1="90" x2="75" y2="90" stroke="#E17055" stroke-width="2"/>
  </g>
  <g transform="translate(80, 300)">
    <circle cx="50" cy="60" r="50" fill="none" stroke="#00CEC9" stroke-width="6"/>
    <path d="M30 60 L45 75 L75 45" stroke="#00CEC9" stroke-width="6" fill="none" stroke-linecap="round" stroke-linejoin="round"/>
  </g>
</svg>
